<svg xmlns="http://www.w3.org/2000/svg" xmlns:xlink="http://www.w3.org/1999/xlink" width="512" zoomAndPan="magnify" viewBox="0 0 384 383.999986" height="512" preserveAspectRatio="xMidYMid meet" version="1.0"><path fill="#fd761f" d="M 298.527344 109.359375 C 313.300781 109.359375 313.351562 237.003906 313.351562 254.34375 C 313.351562 275.378906 281.457031 275.246094 281.457031 299.824219 C 281.457031 305.824219 281.445312 311.601562 281.4375 317.230469 C 282.53125 333.6875 298.304688 343.5625 309.605469 334.378906 C 320.90625 325.195312 320.085938 315.195312 322.332031 301.800781 C 327.285156 272.269531 355.890625 240.054688 358.820312 197.921875 C 362.109375 150.636719 355.113281 105.761719 327.972656 77.414062 C 292.84375 40.714844 262.527344 59.8125 205.757812 44.574219 C 124.109375 22.65625 29.679688 73.929688 52.695312 197.921875 C 62.308594 249.683594 46.621094 297.585938 85.515625 323.753906 C 123.085938 349.019531 134.199219 314.265625 134.320312 307.210938 L 134.628906 289.234375 C 134.628906 284.273438 132.542969 281.742188 119.996094 272.171875 C 74.535156 237.480469 97.296875 107.742188 146.0625 107.742188 C 194.820312 107.738281 217.582031 237.480469 172.121094 272.171875 C 159.574219 281.742188 157.488281 284.273438 157.488281 289.238281 C 157.585938 295.136719 157.589844 295.203125 157.785156 306.925781 C 157.988281 318.648438 161.445312 344.308594 180.988281 346.988281 C 182.621094 347.214844 189.414062 348.507812 191.078125 348.667969 C 197.273438 348.667969 200.15625 349.761719 205.757812 351.261719 C 214.964844 353.730469 220.925781 351.882812 232.210938 356.816406 C 243.496094 361.753906 259.128906 346.757812 259.125 333.355469 C 259.113281 319.957031 259.066406 311.6875 259.066406 299.824219 C 259.066406 275.246094 227.171875 275.378906 227.171875 254.34375 C 227.171875 237.003906 227.21875 109.359375 241.992188 109.359375 C 243.695312 109.359375 246.40625 111.976562 246.40625 117.066406 L 246.40625 195.867188 C 246.378906 207.203125 246.773438 215.867188 254.253906 215.867188 C 261.730469 215.867188 261.132812 200.40625 261.132812 195.574219 C 261.132812 194.285156 264.523438 119.066406 264.605469 117.878906 C 265.023438 111.675781 266.113281 107.742188 270.261719 107.742188 C 274.402344 107.738281 276.125 111.675781 276.539062 117.878906 C 276.621094 119.066406 279.386719 194.285156 279.386719 195.574219 C 279.386719 200.40625 278.789062 215.867188 286.265625 215.867188 C 293.746094 215.867188 294.136719 207.203125 294.109375 195.867188 L 294.109375 117.066406 C 294.109375 111.976562 296.824219 109.359375 298.527344 109.359375 Z M 25.917969 188.671875 C 32.589844 189.167969 35.425781 189.671875 37.597656 181.824219 C 39.773438 173.980469 39.597656 159.617188 32.453125 159.667969 C 25.3125 159.722656 15.246094 165.238281 17.75 178.164062 C 19.203125 185.664062 19.25 188.179688 25.917969 188.671875 Z M 38.8125 254.5625 C 44.285156 253.347656 44.71875 236.851562 44.089844 228.816406 C 43.460938 220.785156 42.878906 193.121094 29.519531 198.957031 C 16.167969 204.792969 17.261719 211.875 23.160156 223.566406 C 26.582031 230.34375 33.34375 255.785156 38.8125 254.5625 Z M 362.980469 262.625 C 357.84375 260.382812 352.175781 264.734375 347.960938 271.601562 C 343.746094 278.457031 327.945312 301.15625 342.167969 304.324219 C 356.394531 307.488281 365.21875 297.988281 367.328125 285.058594 C 368.546875 277.5625 368.117188 264.867188 362.980469 262.625 " fill-opacity="1" fill-rule="evenodd"/></svg>