<svg xmlns="http://www.w3.org/2000/svg" xmlns:xlink="http://www.w3.org/1999/xlink" width="180" zoomAndPan="magnify" viewBox="0 0 135 44.999999" height="60" preserveAspectRatio="xMidYMid meet" version="1.0"><defs><g/><clipPath id="677bf293d0"><path d="M 1.503906 7 L 35.253906 7 L 35.253906 38.464844 L 1.503906 38.464844 Z M 1.503906 7 " clip-rule="nonzero"/></clipPath></defs><g clip-path="url(#677bf293d0)"><path fill="#fd761f" d="M 28.570312 14.476562 C 29.980469 14.476562 29.984375 26.59375 29.984375 28.238281 C 29.984375 30.234375 26.9375 30.222656 26.9375 32.558594 C 26.9375 33.125 26.9375 33.675781 26.9375 34.210938 C 27.042969 35.773438 28.546875 36.710938 29.628906 35.835938 C 30.707031 34.964844 30.628906 34.015625 30.84375 32.746094 C 31.316406 29.941406 34.050781 26.882812 34.328125 22.882812 C 34.644531 18.394531 33.976562 14.132812 31.382812 11.441406 C 28.027344 7.960938 25.128906 9.773438 19.707031 8.324219 C 11.90625 6.246094 2.882812 11.113281 5.082031 22.882812 C 6 27.796875 4.503906 32.34375 8.21875 34.828125 C 11.808594 37.226562 12.871094 33.925781 12.882812 33.257812 L 12.910156 31.550781 C 12.910156 31.082031 12.710938 30.839844 11.511719 29.929688 C 7.167969 26.636719 9.34375 14.320312 14.003906 14.320312 C 18.660156 14.320312 20.835938 26.636719 16.492188 29.929688 C 15.292969 30.839844 15.09375 31.082031 15.09375 31.550781 C 15.105469 32.113281 15.105469 32.117188 15.125 33.230469 C 15.140625 34.34375 15.472656 36.78125 17.339844 37.035156 C 17.496094 37.054688 18.144531 37.179688 18.304688 37.195312 C 18.894531 37.195312 19.171875 37.296875 19.707031 37.441406 C 20.585938 37.675781 21.15625 37.5 22.234375 37.96875 C 23.3125 38.4375 24.804688 37.011719 24.804688 35.738281 C 24.804688 34.46875 24.800781 33.683594 24.800781 32.558594 C 24.800781 30.222656 21.753906 30.234375 21.753906 28.238281 C 21.753906 26.59375 21.757812 14.476562 23.167969 14.476562 C 23.332031 14.476562 23.589844 14.722656 23.589844 15.207031 L 23.589844 22.6875 C 23.585938 23.765625 23.625 24.585938 24.339844 24.585938 C 25.054688 24.585938 24.996094 23.117188 24.996094 22.660156 C 24.996094 22.539062 25.320312 15.398438 25.328125 15.285156 C 25.367188 14.695312 25.472656 14.320312 25.867188 14.320312 C 26.265625 14.320312 26.429688 14.695312 26.46875 15.285156 C 26.476562 15.398438 26.742188 22.539062 26.742188 22.660156 C 26.742188 23.117188 26.683594 24.585938 27.398438 24.585938 C 28.113281 24.585938 28.148438 23.765625 28.148438 22.6875 L 28.148438 15.207031 C 28.148438 14.722656 28.40625 14.476562 28.570312 14.476562 Z M 2.523438 22.003906 C 3.160156 22.050781 3.433594 22.101562 3.640625 21.355469 C 3.847656 20.609375 3.832031 19.246094 3.148438 19.25 C 2.464844 19.257812 1.503906 19.78125 1.742188 21.007812 C 1.882812 21.71875 1.886719 21.957031 2.523438 22.003906 Z M 3.757812 28.261719 C 4.277344 28.144531 4.320312 26.578125 4.261719 25.816406 C 4.199219 25.054688 4.144531 22.425781 2.867188 22.980469 C 1.59375 23.535156 1.695312 24.207031 2.261719 25.316406 C 2.585938 25.960938 3.234375 28.375 3.757812 28.261719 Z M 34.726562 29.027344 C 34.238281 28.8125 33.695312 29.226562 33.292969 29.878906 C 32.890625 30.527344 31.378906 32.683594 32.738281 32.984375 C 34.097656 33.285156 34.941406 32.382812 35.144531 31.15625 C 35.257812 30.441406 35.21875 29.238281 34.726562 29.027344 " fill-opacity="1" fill-rule="evenodd"/></g><g fill="#fd761f" fill-opacity="1"><g transform="translate(37.793448, 30.675415)"><g><path d="M 8.8125 0.328125 C 7.175781 0.328125 5.753906 -0.015625 4.546875 -0.703125 C 3.335938 -1.390625 2.40625 -2.375 1.75 -3.65625 C 1.101562 -4.9375 0.78125 -6.445312 0.78125 -8.1875 C 0.78125 -10.101562 1.164062 -11.769531 1.9375 -13.1875 C 2.71875 -14.613281 3.820312 -15.71875 5.25 -16.5 C 6.6875 -17.289062 8.351562 -17.6875 10.25 -17.6875 C 10.914062 -17.6875 11.628906 -17.632812 12.390625 -17.53125 C 13.160156 -17.4375 13.816406 -17.332031 14.359375 -17.21875 C 14.898438 -17.113281 15.242188 -17.046875 15.390625 -17.015625 L 15.546875 -16.65625 C 15.515625 -16.53125 15.453125 -16.242188 15.359375 -15.796875 C 15.273438 -15.347656 15.175781 -14.742188 15.0625 -13.984375 C 14.957031 -13.222656 14.878906 -12.421875 14.828125 -11.578125 L 12.25 -11.40625 C 12.25 -11.476562 12.257812 -11.644531 12.28125 -11.90625 C 12.300781 -12.175781 12.3125 -12.476562 12.3125 -12.8125 C 12.3125 -13.613281 12.066406 -14.195312 11.578125 -14.5625 C 11.085938 -14.9375 10.320312 -15.125 9.28125 -15.125 C 7.851562 -15.125 6.765625 -14.617188 6.015625 -13.609375 C 5.265625 -12.597656 4.890625 -11.109375 4.890625 -9.140625 C 4.890625 -6.921875 5.289062 -5.195312 6.09375 -3.96875 C 6.894531 -2.75 8.019531 -2.140625 9.46875 -2.140625 C 10.457031 -2.140625 11.226562 -2.441406 11.78125 -3.046875 C 12.34375 -3.648438 12.734375 -4.609375 12.953125 -5.921875 L 15.546875 -6.078125 C 15.492188 -5.773438 15.398438 -5.097656 15.265625 -4.046875 C 15.128906 -3.003906 15.046875 -2.015625 15.015625 -1.078125 L 14.734375 -0.75 C 14.734375 -0.738281 14.429688 -0.632812 13.828125 -0.4375 C 13.222656 -0.25 12.484375 -0.078125 11.609375 0.078125 C 10.742188 0.242188 9.8125 0.328125 8.8125 0.328125 Z M 8.8125 0.328125 "/></g></g></g><g fill="#fd761f" fill-opacity="1"><g transform="translate(54.451818, 30.675415)"><g><path d="M 6.578125 0.328125 C 5.441406 0.328125 4.4375 0.0703125 3.5625 -0.4375 C 2.695312 -0.957031 2.03125 -1.6875 1.5625 -2.625 C 1.09375 -3.5625 0.859375 -4.644531 0.859375 -5.875 C 0.859375 -7.21875 1.132812 -8.410156 1.6875 -9.453125 C 2.238281 -10.503906 3.003906 -11.320312 3.984375 -11.90625 C 4.972656 -12.5 6.109375 -12.796875 7.390625 -12.796875 C 9.128906 -12.796875 10.507812 -12.238281 11.53125 -11.125 C 12.550781 -10.019531 13.0625 -8.519531 13.0625 -6.625 C 13.0625 -5.269531 12.789062 -4.066406 12.25 -3.015625 C 11.707031 -1.960938 10.945312 -1.140625 9.96875 -0.546875 C 8.988281 0.0351562 7.859375 0.328125 6.578125 0.328125 Z M 7.109375 -1.703125 C 7.890625 -1.703125 8.484375 -2.007812 8.890625 -2.625 C 9.296875 -3.25 9.5 -4.164062 9.5 -5.375 C 9.5 -7.070312 9.265625 -8.351562 8.796875 -9.21875 C 8.328125 -10.082031 7.648438 -10.515625 6.765625 -10.515625 C 5.984375 -10.515625 5.390625 -10.203125 4.984375 -9.578125 C 4.578125 -8.960938 4.375 -8.050781 4.375 -6.84375 C 4.375 -5.144531 4.609375 -3.863281 5.078125 -3 C 5.546875 -2.132812 6.222656 -1.703125 7.109375 -1.703125 Z M 7.109375 -1.703125 "/></g></g></g><g fill="#fd761f" fill-opacity="1"><g transform="translate(68.405898, 30.675415)"><g><path d="M 8.625 -1.453125 C 9.070312 -1.546875 9.390625 -1.707031 9.578125 -1.9375 C 9.773438 -2.175781 9.882812 -2.519531 9.90625 -2.96875 L 9.984375 -7.65625 C 9.984375 -8.445312 9.835938 -9.035156 9.546875 -9.421875 C 9.253906 -9.804688 8.8125 -10 8.21875 -10 C 7.53125 -10 6.738281 -9.660156 5.84375 -8.984375 C 5.664062 -5.734375 5.578125 -3.703125 5.578125 -2.890625 C 5.578125 -2.441406 5.632812 -2.125 5.75 -1.9375 C 5.863281 -1.757812 6.078125 -1.671875 6.390625 -1.671875 L 7.109375 -1.703125 L 7.171875 -1.59375 L 6.890625 0.078125 C 6.691406 0.0546875 6.316406 0.0351562 5.765625 0.015625 C 5.222656 0.00390625 4.65625 0 4.0625 0 C 3.476562 0 2.847656 0.0195312 2.171875 0.0625 C 1.492188 0.113281 1.054688 0.144531 0.859375 0.15625 L 1.078125 -1.515625 C 1.597656 -1.566406 1.960938 -1.703125 2.171875 -1.921875 C 2.378906 -2.148438 2.484375 -2.519531 2.484375 -3.03125 L 2.484375 -8.765625 C 2.484375 -9.390625 2.390625 -9.816406 2.203125 -10.046875 C 2.015625 -10.273438 1.664062 -10.390625 1.15625 -10.390625 L 0.8125 -10.390625 L 0.703125 -10.515625 L 0.84375 -11.921875 C 1.863281 -12.066406 2.875 -12.238281 3.875 -12.4375 C 4.875 -12.632812 5.519531 -12.757812 5.8125 -12.8125 L 6.03125 -12.546875 C 6 -12.441406 5.945312 -12.195312 5.875 -11.8125 C 5.800781 -11.4375 5.753906 -11.0625 5.734375 -10.6875 L 5.84375 -10.578125 C 6.40625 -11.066406 7.050781 -11.554688 7.78125 -12.046875 C 8.507812 -12.546875 9.035156 -12.796875 9.359375 -12.796875 C 10.640625 -12.796875 11.632812 -12.488281 12.34375 -11.875 C 13.0625 -11.257812 13.421875 -10.398438 13.421875 -9.296875 C 13.421875 -9.023438 13.347656 -8.082031 13.203125 -6.46875 C 13.015625 -4.625 12.921875 -3.441406 12.921875 -2.921875 C 12.921875 -2.453125 12.988281 -2.117188 13.125 -1.921875 C 13.257812 -1.722656 13.472656 -1.625 13.765625 -1.625 C 13.941406 -1.625 14.113281 -1.628906 14.28125 -1.640625 C 14.445312 -1.660156 14.554688 -1.671875 14.609375 -1.671875 L 14.65625 -1.5625 L 14.421875 0.078125 C 14.203125 0.0546875 13.804688 0.0351562 13.234375 0.015625 C 12.671875 0.00390625 12.09375 0 11.5 0 C 11.0625 0 10.503906 0.03125 9.828125 0.09375 C 9.148438 0.15625 8.707031 0.195312 8.5 0.21875 Z M 8.625 -1.453125 "/></g></g></g><g fill="#fd761f" fill-opacity="1"><g transform="translate(83.603955, 30.675415)"><g><path d="M 8.625 -1.453125 C 9.070312 -1.546875 9.390625 -1.707031 9.578125 -1.9375 C 9.773438 -2.175781 9.882812 -2.519531 9.90625 -2.96875 L 9.984375 -7.65625 C 9.984375 -8.445312 9.835938 -9.035156 9.546875 -9.421875 C 9.253906 -9.804688 8.8125 -10 8.21875 -10 C 7.53125 -10 6.738281 -9.660156 5.84375 -8.984375 C 5.664062 -5.734375 5.578125 -3.703125 5.578125 -2.890625 C 5.578125 -2.441406 5.632812 -2.125 5.75 -1.9375 C 5.863281 -1.757812 6.078125 -1.671875 6.390625 -1.671875 L 7.109375 -1.703125 L 7.171875 -1.59375 L 6.890625 0.078125 C 6.691406 0.0546875 6.316406 0.0351562 5.765625 0.015625 C 5.222656 0.00390625 4.65625 0 4.0625 0 C 3.476562 0 2.847656 0.0195312 2.171875 0.0625 C 1.492188 0.113281 1.054688 0.144531 0.859375 0.15625 L 1.078125 -1.515625 C 1.597656 -1.566406 1.960938 -1.703125 2.171875 -1.921875 C 2.378906 -2.148438 2.484375 -2.519531 2.484375 -3.03125 L 2.484375 -8.765625 C 2.484375 -9.390625 2.390625 -9.816406 2.203125 -10.046875 C 2.015625 -10.273438 1.664062 -10.390625 1.15625 -10.390625 L 0.8125 -10.390625 L 0.703125 -10.515625 L 0.84375 -11.921875 C 1.863281 -12.066406 2.875 -12.238281 3.875 -12.4375 C 4.875 -12.632812 5.519531 -12.757812 5.8125 -12.8125 L 6.03125 -12.546875 C 6 -12.441406 5.945312 -12.195312 5.875 -11.8125 C 5.800781 -11.4375 5.753906 -11.0625 5.734375 -10.6875 L 5.84375 -10.578125 C 6.40625 -11.066406 7.050781 -11.554688 7.78125 -12.046875 C 8.507812 -12.546875 9.035156 -12.796875 9.359375 -12.796875 C 10.640625 -12.796875 11.632812 -12.488281 12.34375 -11.875 C 13.0625 -11.257812 13.421875 -10.398438 13.421875 -9.296875 C 13.421875 -9.023438 13.347656 -8.082031 13.203125 -6.46875 C 13.015625 -4.625 12.921875 -3.441406 12.921875 -2.921875 C 12.921875 -2.453125 12.988281 -2.117188 13.125 -1.921875 C 13.257812 -1.722656 13.472656 -1.625 13.765625 -1.625 C 13.941406 -1.625 14.113281 -1.628906 14.28125 -1.640625 C 14.445312 -1.660156 14.554688 -1.671875 14.609375 -1.671875 L 14.65625 -1.5625 L 14.421875 0.078125 C 14.203125 0.0546875 13.804688 0.0351562 13.234375 0.015625 C 12.671875 0.00390625 12.09375 0 11.5 0 C 11.0625 0 10.503906 0.03125 9.828125 0.09375 C 9.148438 0.15625 8.707031 0.195312 8.5 0.21875 Z M 8.625 -1.453125 "/></g></g></g><g fill="#fd761f" fill-opacity="1"><g transform="translate(98.802012, 30.675415)"><g><path d="M 0.953125 -1.40625 C 1.472656 -1.5 1.851562 -1.675781 2.09375 -1.9375 C 2.34375 -2.195312 2.46875 -2.578125 2.46875 -3.078125 L 2.46875 -8.921875 C 2.46875 -9.503906 2.382812 -9.898438 2.21875 -10.109375 C 2.050781 -10.328125 1.753906 -10.4375 1.328125 -10.4375 C 1.203125 -10.4375 1.070312 -10.425781 0.9375 -10.40625 C 0.8125 -10.394531 0.734375 -10.378906 0.703125 -10.359375 L 0.859375 -11.90625 C 1.867188 -12.039062 2.894531 -12.203125 3.9375 -12.390625 C 4.988281 -12.585938 5.671875 -12.722656 5.984375 -12.796875 L 6.21875 -12.359375 C 6.019531 -11.960938 5.863281 -10.875 5.75 -9.09375 C 5.632812 -7.320312 5.578125 -5.238281 5.578125 -2.84375 C 5.578125 -2.40625 5.640625 -2.097656 5.765625 -1.921875 C 5.890625 -1.742188 6.101562 -1.65625 6.40625 -1.65625 C 6.570312 -1.65625 6.726562 -1.660156 6.875 -1.671875 C 7.03125 -1.691406 7.132812 -1.703125 7.1875 -1.703125 L 7.28125 -1.5625 L 7 0.078125 C 6.800781 0.0546875 6.410156 0.0351562 5.828125 0.015625 C 5.242188 0.00390625 4.644531 0 4.03125 0 C 3.46875 0 2.832031 0.0390625 2.125 0.125 C 1.414062 0.207031 0.953125 0.265625 0.734375 0.296875 Z M 3.78125 -15.125 C 3.1875 -15.125 2.722656 -15.289062 2.390625 -15.625 C 2.066406 -15.96875 1.90625 -16.429688 1.90625 -17.015625 C 1.90625 -17.660156 2.097656 -18.179688 2.484375 -18.578125 C 2.878906 -18.972656 3.398438 -19.171875 4.046875 -19.171875 C 4.628906 -19.171875 5.082031 -18.992188 5.40625 -18.640625 C 5.726562 -18.296875 5.890625 -17.832031 5.890625 -17.25 C 5.890625 -16.625 5.691406 -16.113281 5.296875 -15.71875 C 4.910156 -15.320312 4.40625 -15.125 3.78125 -15.125 Z M 3.78125 -15.125 "/></g></g></g><g fill="#fd761f" fill-opacity="1"><g transform="translate(106.698506, 30.675415)"><g><path d="M 6.8125 0.328125 C 4.914062 0.328125 3.421875 -0.222656 2.328125 -1.328125 C 1.242188 -2.441406 0.703125 -3.960938 0.703125 -5.890625 C 0.703125 -7.191406 0.976562 -8.363281 1.53125 -9.40625 C 2.09375 -10.457031 2.859375 -11.285156 3.828125 -11.890625 C 4.804688 -12.492188 5.894531 -12.796875 7.09375 -12.796875 C 10.113281 -12.796875 11.625 -11.257812 11.625 -8.1875 C 11.625 -7.65625 11.5625 -7.15625 11.4375 -6.6875 L 11.109375 -6.359375 L 4.109375 -6.359375 C 4.128906 -5.035156 4.441406 -4.023438 5.046875 -3.328125 C 5.648438 -2.640625 6.492188 -2.296875 7.578125 -2.296875 C 8.515625 -2.296875 9.585938 -2.566406 10.796875 -3.109375 L 10.984375 -3 L 11.40625 -1.671875 C 10.738281 -1.171875 9.96875 -0.710938 9.09375 -0.296875 C 8.226562 0.117188 7.46875 0.328125 6.8125 0.328125 Z M 7.8125 -8.0625 C 8.03125 -8.082031 8.171875 -8.125 8.234375 -8.1875 C 8.296875 -8.257812 8.328125 -8.425781 8.328125 -8.6875 C 8.328125 -10.019531 7.757812 -10.6875 6.625 -10.6875 C 5.925781 -10.6875 5.351562 -10.441406 4.90625 -9.953125 C 4.46875 -9.460938 4.203125 -8.757812 4.109375 -7.84375 Z M 7.8125 -8.0625 "/></g></g></g><g fill="#fd761f" fill-opacity="1"><g transform="translate(119.192274, 30.675415)"><g><path d="M 1.265625 -11.140625 L 1.296875 -12.359375 C 1.296875 -13.460938 1.265625 -14.492188 1.203125 -15.453125 C 1.140625 -16.421875 1.097656 -17.039062 1.078125 -17.3125 L 3.765625 -17.6875 L 3.96875 -17.421875 C 3.914062 -17.078125 3.796875 -16.3125 3.609375 -15.125 C 3.421875 -13.945312 3.203125 -12.765625 2.953125 -11.578125 L 1.671875 -11.0625 Z M 1.265625 -11.140625 "/></g></g></g><g fill="#fd761f" fill-opacity="1"><g transform="translate(123.951806, 30.675415)"><g><path d="M 4.59375 0.328125 C 3.945312 0.328125 3.359375 0.269531 2.828125 0.15625 C 2.296875 0.0507812 1.875 -0.0546875 1.5625 -0.171875 C 1.257812 -0.296875 1.070312 -0.375 1 -0.40625 L 0.84375 -0.671875 C 0.914062 -1.160156 0.984375 -1.726562 1.046875 -2.375 C 1.109375 -3.03125 1.15625 -3.65625 1.1875 -4.25 L 2.671875 -4.375 C 2.691406 -2.5625 3.492188 -1.65625 5.078125 -1.65625 C 5.609375 -1.65625 6.039062 -1.765625 6.375 -1.984375 C 6.71875 -2.210938 6.890625 -2.5 6.890625 -2.84375 C 6.890625 -3.195312 6.707031 -3.519531 6.34375 -3.8125 C 5.988281 -4.113281 5.269531 -4.53125 4.1875 -5.0625 C 3.101562 -5.5625 2.316406 -6.09375 1.828125 -6.65625 C 1.347656 -7.226562 1.109375 -7.894531 1.109375 -8.65625 C 1.109375 -9.46875 1.34375 -10.179688 1.8125 -10.796875 C 2.28125 -11.421875 2.9375 -11.910156 3.78125 -12.265625 C 4.632812 -12.617188 5.601562 -12.796875 6.6875 -12.796875 C 7.207031 -12.796875 7.691406 -12.757812 8.140625 -12.6875 C 8.585938 -12.613281 8.941406 -12.535156 9.203125 -12.453125 C 9.472656 -12.367188 9.640625 -12.320312 9.703125 -12.3125 L 9.84375 -12.03125 C 9.8125 -11.832031 9.734375 -11.382812 9.609375 -10.6875 C 9.492188 -10 9.398438 -9.285156 9.328125 -8.546875 L 7.8125 -8.4375 L 7.84375 -8.921875 C 7.84375 -9.554688 7.6875 -10.019531 7.375 -10.3125 C 7.070312 -10.613281 6.597656 -10.765625 5.953125 -10.765625 C 5.484375 -10.765625 5.082031 -10.648438 4.75 -10.421875 C 4.425781 -10.203125 4.265625 -9.921875 4.265625 -9.578125 C 4.265625 -9.234375 4.410156 -8.914062 4.703125 -8.625 C 4.992188 -8.332031 5.472656 -8.023438 6.140625 -7.703125 C 7.203125 -7.203125 8.015625 -6.753906 8.578125 -6.359375 C 9.148438 -5.960938 9.546875 -5.5625 9.765625 -5.15625 C 9.992188 -4.75 10.109375 -4.265625 10.109375 -3.703125 C 10.109375 -2.960938 9.863281 -2.285156 9.375 -1.671875 C 8.894531 -1.054688 8.226562 -0.566406 7.375 -0.203125 C 6.53125 0.148438 5.601562 0.328125 4.59375 0.328125 Z M 4.59375 0.328125 "/></g></g></g></svg>